<?xml version="1.0" standalone="no"?>
<!DOCTYPE svg PUBLIC "-//W3C//DTD SVG 20010904//EN"
 "http://www.w3.org/TR/2001/REC-SVG-20010904/DTD/svg10.dtd">
<svg version="1.0" xmlns="http://www.w3.org/2000/svg"
 width="512.000000pt" height="512.000000pt" viewBox="0 0 512.000000 512.000000"
 preserveAspectRatio="xMidYMid meet">
<metadata>
Created by potrace 1.11, written by Peter Selinger 2001-2013
</metadata>
<g transform="translate(0.000000,512.000000) scale(0.100000,-0.100000)"
fill="#000000" stroke="none">
<path d="M1395 3954 c-638 -640 -1161 -1166 -1163 -1168 -1 -1 47 -52 107
-112 l110 -109 -111 -111 -110 -112 1164 -1166 c640 -641 1167 -1166 1172
-1166 4 0 532 525 1173 1166 l1166 1167 -104 102 c-57 57 -105 108 -107 115
-2 6 36 51 84 99 49 49 97 97 106 108 17 19 -14 51 -1147 1184 -641 640 -1169
1165 -1173 1165 -4 1 -529 -522 -1167 -1162z"/>
</g>
</svg>
